HIERARCHY
ROOT root
{
	OFFSET	0	13.1	24.9
	CHANNELS 6  Xposition Yposition Zposition Xrotation Yrotation Zrotation
	JOINT spine_1
	{
		OFFSET	0	9.99999	0
		CHANNELS 3  Xrotation Yrotation Zrotation
		JOINT spine_2
		{
			OFFSET	0	112	-10
			CHANNELS 3  Xrotation Yrotation Zrotation
			JOINT spine_3
			{
				OFFSET	0	206.5	19.3
				CHANNELS 3  Xrotation Yrotation Zrotation
				JOINT spine_4
				{
					OFFSET	0	110.4	14.6
					CHANNELS 3  Xrotation Yrotation Zrotation
					JOINT neck_1
					{
						OFFSET	0	71.8	-50.3
						CHANNELS 3  Xrotation Yrotation Zrotation
						JOINT neck_2
						{
							OFFSET	0	86.2	-25.8
							CHANNELS 3  Xrotation Yrotation Zrotation
							JOINT head_ee
							{
								OFFSET	0	179.8	-8.7
								CHANNELS 3  Xrotation Yrotation Zrotation
								End Site
								{
									OFFSET	1	0	0
								}
							}
						}
					}
					JOINT left_clavicle
					{
						OFFSET	-43.2	22.4	-70.8
						CHANNELS 3  Xrotation Yrotation Zrotation
						JOINT left_shoulder
						{
							OFFSET	-93.9	-5.79999	48.7
							CHANNELS 3  Xrotation Yrotation Zrotation
							JOINT left_elbow
							{
								OFFSET	-291.4	-30.8	15.2
								CHANNELS 3  Xrotation Yrotation Zrotation
								JOINT left_lowarm_twist
								{
									OFFSET	-110.7	-3.89999	13.6
									CHANNELS 3  Xrotation Yrotation Zrotation
									JOINT left_hand
									{
										OFFSET	-110.7	-3.89999	13.6
										CHANNELS 3  Xrotation Yrotation Zrotation
										JOINT left_ee
										{
											OFFSET	-80.8	-5.10001	12.1
											CHANNELS 3  Xrotation Yrotation Zrotation
											End Site
											{
												OFFSET	1	0	0
											}
										}
									}
								}
							}
						}
					}
					JOINT right_clavicle
					{
						OFFSET	43.2	22.4	-70.8
						CHANNELS 3  Xrotation Yrotation Zrotation
						JOINT right_shoulder
						{
							OFFSET	93.9	-5.79999	48.7
							CHANNELS 3  Xrotation Yrotation Zrotation
							JOINT right_elbow
							{
								OFFSET	291.4	-30.8	15.2
								CHANNELS 3  Xrotation Yrotation Zrotation
								JOINT right_lowarm_twist
								{
									OFFSET	110.7	-3.89999	13.6
									CHANNELS 3  Xrotation Yrotation Zrotation
									JOINT right_hand
									{
										OFFSET	110.7	-3.89999	13.6
										CHANNELS 3  Xrotation Yrotation Zrotation
										JOINT right_ee
										{
											OFFSET	80.8	-5.10001	12.1
											CHANNELS 3  Xrotation Yrotation Zrotation
											End Site
											{
												OFFSET	1	0	0
											}
										}
									}
								}
							}
						}
					}
				}
			}
		}
	}
	JOINT left_hip
	{
		OFFSET	-82.8	-127.5	0.300001
		CHANNELS 3  Xrotation Yrotation Zrotation
		JOINT left_knee
		{
			OFFSET	-28.2	-396.7	2.2
			CHANNELS 3  Xrotation Yrotation Zrotation
			JOINT left_ankle
			{
				OFFSET	-11.7	-411.3	35.4
				CHANNELS 3  Xrotation Yrotation Zrotation
				JOINT left_toes
				{
					OFFSET	0	-60	-88.6
					CHANNELS 3  Xrotation Yrotation Zrotation
					JOINT left_foot_ee
					{
						OFFSET	-22.5	-16.5	-42.2
						CHANNELS 3  Xrotation Yrotation Zrotation
						End Site
						{
							OFFSET	1	0	0
						}
					}
				}
			}
		}
	}
	JOINT right_hip
	{
		OFFSET	82.8	-127.5	0.300001
		CHANNELS 3  Xrotation Yrotation Zrotation
		JOINT right_knee
		{
			OFFSET	28.2	-396.7	2.2
			CHANNELS 3  Xrotation Yrotation Zrotation
			JOINT right_ankle
			{
				OFFSET	11.7	-411.3	35.4
				CHANNELS 3  Xrotation Yrotation Zrotation
				JOINT right_toes
				{
					OFFSET	0	-60	-88.6
					CHANNELS 3  Xrotation Yrotation Zrotation
					JOINT right_foot_ee
					{
						OFFSET	22.5	-16.5	-42.2
						CHANNELS 3  Xrotation Yrotation Zrotation
						End Site
						{
							OFFSET	1	0	0
						}
					}
				}
			}
		}
	}
}
MOTION
Frames: 12
Frame Time: 0.02
2800.94 716.97 -1473.77 -3.17311408433 65.4566407359 -1.11105488239 -0.052072 0.0982241 1.15846 -0.0513256 0.0243145 1.16236 -0.0504746 -0.221562 1.14131 -0.0522906 -0.0385457 1.16197 4.69473 8.42715 -1.69169 5.0331 15.9654 -1.52499 -0.0 0.0 -0.0 4.90894 17.7645 9.63414 31.8089 -31.9867 65.1828 3.47205 -59.8112 1.99738 -14.7004 -0.743258 1.72131 -6.87419 13.5287 -41.4675 -0.0 0.0 -0.0 8.32031 6.69204 -16.2643 -30.6123 4.70713 -66.2022 0.357879 10.0533 -0.0314782 -13.3837 0.65889 -1.57543 0.624748 -29.1356 -14.8466 0.0 0.0 0.0 -16.5888 -14.0145 11.6271 -0.718919 0.0289339 0.106532 42.6923 25.5021 -5.43659 -23.9784 0.0 0.0 -0.0 0.0 -0.0 31.8035 17.1844 -2.22916 -2.07057 -0.0796992 -0.307749 -22.1424 2.4111 -3.39368 -4.15512 0.0 0.0 0.0 0.0 0.0 
2684.89505354 730.894 -1507.46928191 -8.53826649802 66.8356413123 3.70216069594 1.11909 -0.0633703 1.35574 1.1201 -0.149503 1.34897 1.11667 -0.404595 1.29553 1.11438 -0.194933 1.34315 9.3208 9.9683 -6.97169 10.5718 22.7516 -8.58499 -0.0 0.0 -0.0 -2.07655 10.5024 -2.31912 14.1022 -32.6937 70.0658 2.18788 -47.2971 0.958164 -17.9595 -0.966362 2.07381 -8.83954 18.5513 -55.0472 -0.0 0.0 -0.0 9.64748 3.72908 -19.0488 -22.7431 10.2449 -63.1838 0.627774 17.2748 -0.0953619 -10.4737 0.484501 -1.2465 0.531186 -28.5621 -14.1451 0.0 0.0 0.0 -11.4286 -9.45446 12.5431 -14.9972 0.321672 2.27246 32.5238 27.1564 -4.45398 -21.5244 0.0 0.0 -0.0 0.0 -0.0 30.4245 19.7108 -5.784 -12.4535 -0.309217 -1.88241 -11.0288 -11.9051 -1.64898 21.4169 -0.0 -0.0 0.0 0.0 0.0 
2685.59592942 730.894 -1509.79522148 -8.15790380179 65.6959947692 3.28667652277 1.11909 -0.0633703 1.35574 1.1201 -0.149503 1.34897 1.11667 -0.404595 1.29553 1.11438 -0.194933 1.34315 9.3208 9.9683 -6.97169 10.5718 22.7516 -8.58499 -0.0 0.0 -0.0 -2.07655 10.5024 -2.31912 14.1022 -32.6937 70.0658 2.18788 -47.2971 0.958164 -17.9595 -0.966362 2.07381 -8.83954 18.5513 -55.0472 -0.0 0.0 -0.0 9.64748 3.72908 -19.0488 -22.7431 10.2449 -63.1838 0.627774 17.2748 -0.0953619 -10.4737 0.484501 -1.2465 0.531186 -28.5621 -14.1451 0.0 0.0 0.0 -11.4286 -9.45446 12.5431 -14.9972 0.321672 2.27246 32.5238 27.1564 -4.45398 -21.5244 0.0 0.0 -0.0 0.0 -0.0 30.4245 19.7108 -5.784 -12.4535 -0.309217 -1.88241 -11.0288 -11.9051 -1.64898 21.4169 -0.0 -0.0 0.0 0.0 0.0 
2673.31513715 732.754 -1515.24403624 -9.63311634674 66.1096567859 4.69696015399 1.19593 -0.0612838 1.43166 1.19706 -0.15225 1.42486 1.19336 -0.419974 1.37006 1.19079 -0.198351 1.41918 9.07915 10.0048 -7.50199 10.4091 23.3102 -9.20465 -0.0 0.0 -0.0 -2.62423 10.198 -3.31793 11.2479 -33.3121 70.5179 1.86053 -42.661 0.726583 -19.3837 -1.07011 2.2238 -9.14299 20.4758 -55.5741 -0.0 0.0 -0.0 9.80959 1.17644 -19.312 -20.9527 11.8384 -62.7092 0.646121 17.7484 -0.100883 -9.84271 0.448912 -1.17404 0.549947 -27.3401 -13.8633 0.0 0.0 0.0 -9.23753 -8.32368 12.0551 -17.8744 0.314883 2.7138 32.9194 27.3933 -4.50572 -22.4265 0.0 0.0 -0.0 0.0 -0.0 30.5585 19.9214 -6.02743 -14.24 -0.319775 -2.15629 -7.26833 -16.0172 -1.08823 25.6634 -0.0 -0.0 0.0 0.0 0.0 
2658.18120302 732.188 -1520.57947432 -11.1765128895 66.7926821094 6.0420892955 1.39105 0.030557 1.51428 1.39232 -0.0658514 1.51316 1.39067 -0.346814 1.47436 1.38765 -0.109643 1.51062 8.165 9.92117 -6.78172 9.31619 22.6215 -8.11627 -0.0 0.0 -0.0 -3.1535 10.8575 -4.1104 8.26786 -33.9333 70.8485 1.63155 -38.9429 0.576883 -21.3093 -1.21626 2.42244 -9.07451 21.2015 -53.6315 -0.0 0.0 -0.0 10.3262 -0.122855 -20.3236 -19.6281 13.1557 -62.5901 0.692001 18.9216 -0.115316 -8.66248 0.384502 -1.03751 0.481294 -26.488 -13.196 0.0 0.0 0.0 -7.37526 -7.32129 11.7337 -22.3389 0.260527 3.39651 32.2131 26.6999 -4.40542 -23.0361 0.0 0.0 -0.0 0.0 -0.0 30.2959 19.8908 -6.5131 -15.0327 -0.321724 -2.2779 -2.9704 -18.6897 -0.444553 27.8588 -0.0 -0.0 0.0 0.0 0.0 
2659.45706534 732.188 -1524.30494039 -10.539402884 65.3177140977 5.34504341563 1.39105 0.030557 1.51428 1.39232 -0.0658514 1.51316 1.39067 -0.346814 1.47436 1.38765 -0.109643 1.51062 8.165 9.92117 -6.78172 9.31619 22.6215 -8.11627 -0.0 0.0 -0.0 -3.1535 10.8575 -4.1104 8.26786 -33.9333 70.8485 1.63155 -38.9429 0.576883 -21.3093 -1.21626 2.42244 -9.07451 21.2015 -53.6315 -0.0 0.0 -0.0 10.3262 -0.122855 -20.3236 -19.6281 13.1557 -62.5901 0.692001 18.9216 -0.115316 -8.66248 0.384502 -1.03751 0.481294 -26.488 -13.196 0.0 0.0 0.0 -7.37526 -7.32129 11.7337 -22.3389 0.260527 3.39651 32.2131 26.6999 -4.40542 -23.0361 0.0 0.0 -0.0 0.0 -0.0 30.2959 19.8908 -6.5131 -15.0327 -0.321724 -2.2779 -2.9704 -18.6897 -0.444553 27.8588 -0.0 -0.0 0.0 0.0 0.0 
2660.01940886 732.188 -1525.85251139 -10.295797564 64.7001084066 5.07627816538 1.39105 0.030557 1.51428 1.39232 -0.0658514 1.51316 1.39067 -0.346814 1.47436 1.38765 -0.109643 1.51062 8.165 9.92117 -6.78172 9.31619 22.6215 -8.11627 -0.0 0.0 -0.0 -3.1535 10.8575 -4.1104 8.26786 -33.9333 70.8485 1.63155 -38.9429 0.576883 -21.3093 -1.21626 2.42244 -9.07451 21.2015 -53.6315 -0.0 0.0 -0.0 10.3262 -0.122855 -20.3236 -19.6281 13.1557 -62.5901 0.692001 18.9216 -0.115316 -8.66248 0.384502 -1.03751 0.481294 -26.488 -13.196 0.0 0.0 0.0 -7.37526 -7.32129 11.7337 -22.3389 0.260527 3.39651 32.2131 26.6999 -4.40542 -23.0361 0.0 0.0 -0.0 0.0 -0.0 30.2959 19.8908 -6.5131 -15.0327 -0.321724 -2.2779 -2.9704 -18.6897 -0.444553 27.8588 -0.0 -0.0 0.0 0.0 0.0 
2649.13503051 735.625 -1527.91525036 -10.9373805988 66.5249629288 5.53946350767 1.5465 0.196533 1.62212 1.54796 0.0929287 1.63133 1.55073 -0.208276 1.62065 1.54707 0.0502548 1.6332 7.5103 9.84285 -6.45432 8.56768 22.2642 -7.58254 -0.0 0.0 -0.0 -3.60058 11.6532 -4.71973 6.01275 -34.5355 71.1366 1.52316 -37.0331 0.510159 -22.6697 -1.32352 2.5598 -9.00359 21.7251 -52.0562 -0.0 0.0 -0.0 10.8015 -1.28505 -21.2366 -18.0151 14.6913 -62.6606 0.760415 20.6407 -0.138472 -7.77403 0.337884 -0.933878 0.463756 -25.7618 -12.8557 0.0 0.0 0.0 -5.38843 -6.70016 11.0557 -25.534 0.189058 3.88155 31.7988 26.1983 -4.34431 -23.4881 0.0 0.0 -0.0 0.0 -0.0 30.0295 19.892 -6.80601 -15.7585 -0.322032 -2.38925 0.0811189 -20.6932 0.0121469 29.2258 -0.0 -0.0 0.0 0.0 0.0 
2632.14862393 734.726 -1532.00537298 -12.5991811786 69.3628177443 7.25778624171 1.7051 0.479166 1.78966 1.70681 0.364334 1.81651 1.71858 0.030052 1.85243 1.71393 0.322183 1.82446 5.47627 9.87001 -5.93293 6.36118 22.0392 -6.55844 -0.0 0.0 -0.0 -4.01708 14.4116 -4.83308 3.47576 -33.982 71.6887 1.5325 -37.2017 0.515797 -27.2495 -1.70812 3.00296 -8.39387 19.8243 -48.5287 -0.0 0.0 -0.0 11.0626 -1.98757 -21.7251 -16.027 15.8654 -63.4319 0.912155 24.3157 -0.196517 -5.70139 0.235432 -0.689445 0.654217 -23.2722 -13.1418 0.0 0.0 0.0 -3.38467 -6.03774 9.88204 -29.9383 0.0464258 4.54226 32.6851 26.5957 -4.45547 -24.1108 0.0 0.0 -0.0 0.0 -0.0 28.0946 20.028 -6.49899 -15.7546 -0.322034 -2.38866 1.51012 -20.8923 0.225557 27.9917 -0.0 -0.0 0.0 0.0 0.0 
2632.90336782 734.726 -1534.14861828 -12.1913015457 68.6506697415 6.82091645862 1.7051 0.479166 1.78966 1.70681 0.364334 1.81651 1.71858 0.030052 1.85243 1.71393 0.322183 1.82446 5.47627 9.87001 -5.93293 6.36118 22.0392 -6.55844 -0.0 0.0 -0.0 -4.01708 14.4116 -4.83308 3.47576 -33.982 71.6887 1.5325 -37.2017 0.515797 -27.2495 -1.70812 3.00296 -8.39387 19.8243 -48.5287 -0.0 0.0 -0.0 11.0626 -1.98757 -21.7251 -16.027 15.8654 -63.4319 0.912155 24.3157 -0.196517 -5.70139 0.235432 -0.689445 0.654217 -23.2722 -13.1418 0.0 0.0 0.0 -3.38467 -6.03774 9.88204 -29.9383 0.0464258 4.54226 32.6851 26.5957 -4.45547 -24.1108 0.0 0.0 -0.0 0.0 -0.0 28.0946 20.028 -6.49899 -15.7546 -0.322034 -2.38866 1.51012 -20.8923 0.225557 27.9917 -0.0 -0.0 0.0 0.0 0.0 
2620.66204185 737.665 -1535.67760136 -12.7185513904 70.6401129635 7.57338222364 1.94228 0.683936 1.83118 1.94397 0.566048 1.87098 1.96265 0.226992 1.94148 1.95778 0.53071 1.8813 3.86105 9.75348 -5.22325 4.57184 21.3656 -5.4223 -0.0 0.0 -0.0 -4.46642 16.099 -5.17987 1.1519 -35.2232 71.2951 1.30358 -32.851 0.384309 -30.2885 -1.98243 3.27961 -8.09615 19.7317 -45.8247 -0.0 0.0 -0.0 11.2593 -2.08685 -22.125 -14.1583 17.0502 -63.8487 1.03344 27.1089 -0.249152 -3.51254 0.136927 -0.427518 0.515597 -22.7196 -12.1326 0.0 0.0 0.0 -1.61398 -3.48243 9.08612 -35.0633 -0.182928 5.29495 33.3175 26.6261 -4.52683 -24.2249 0.0 0.0 -0.0 0.0 -0.0 26.6056 20.0255 -6.13661 -15.151 -0.32187 -2.29605 6.36327 -22.0001 0.942814 31.1303 -0.0 -0.0 0.0 0.0 0.0 
2622.97436106 737.665 -1542.04096496 -11.56458661 68.6502910118 6.34275215894 1.94228 0.683936 1.83118 1.94397 0.566048 1.87098 1.96265 0.226992 1.94148 1.95778 0.53071 1.8813 3.86105 9.75348 -5.22325 4.57184 21.3656 -5.4223 -0.0 0.0 -0.0 -4.46642 16.099 -5.17987 1.1519 -35.2232 71.2951 1.30358 -32.851 0.384309 -30.2885 -1.98243 3.27961 -8.09615 19.7317 -45.8247 -0.0 0.0 -0.0 11.2593 -2.08685 -22.125 -14.1583 17.0502 -63.8487 1.03344 27.1089 -0.249152 -3.51254 0.136927 -0.427518 0.515597 -22.7196 -12.1326 0.0 0.0 0.0 -1.61398 -3.48243 9.08612 -35.0633 -0.182928 5.29495 33.3175 26.6261 -4.52683 -24.2249 0.0 0.0 -0.0 0.0 -0.0 26.6056 20.0255 -6.13661 -15.151 -0.32187 -2.29605 6.36327 -22.0001 0.942814 31.1303 -0.0 -0.0 0.0 0.0 0.0 
